<svg xmlns="http://www.w3.org/2000/svg" viewBox="0 0 64 64" role="img" aria-label="ATonauts">
  <rect width="64" height="64" fill="#1A1F26"/>
  <circle cx="32" cy="32" r="20" fill="none" stroke="#3CE2FF" stroke-width="3" opacity="0.95"/>
  <ellipse cx="32" cy="32" rx="26" ry="11" fill="none" stroke="#F5F7FA" stroke-width="3" opacity="0.72" transform="rotate(-28 32 32)"/>
  <ellipse cx="32" cy="32" rx="26" ry="11" fill="none" stroke="#3CE2FF" stroke-width="3" opacity="0.72" transform="rotate(28 32 32)"/>
  <path d="M25 22h14a7 7 0 0 1 7 7v6a7 7 0 0 1-7 7H25a7 7 0 0 1-7-7v-6a7 7 0 0 1 7-7Z" fill="#FF6B35"/>
  <circle cx="32" cy="32" r="6" fill="#1A1F26"/>
  <circle cx="32" cy="32" r="3" fill="#3CE2FF"/>
  <circle cx="50" cy="20" r="4" fill="#FF6B35"/>
</svg>
