<svg xmlns="http://www.w3.org/2000/svg" xmlns:xlink="http://www.w3.org/1999/xlink" width="500" zoomAndPan="magnify" viewBox="0 0 375 374.999991" height="500" preserveAspectRatio="xMidYMid meet" version="1.0"><defs><g/><clipPath id="fd8245a2ab"><path d="M 9.53125 10.355469 L 309.46875 10.355469 L 309.46875 315.53125 L 9.53125 315.53125 Z M 9.53125 10.355469 " clip-rule="nonzero"/></clipPath><clipPath id="49d7ecd4c3"><path d="M 221.597656 10.355469 L 309.46875 98.230469 L 309.46875 228.707031 L 221.597656 316.578125 L 97.402344 316.578125 L 9.53125 228.707031 L 9.53125 98.230469 L 97.402344 10.355469 Z M 221.597656 10.355469 " clip-rule="nonzero"/></clipPath><clipPath id="b536e95f58"><rect x="0" width="320" y="0" height="325"/></clipPath></defs><rect x="-37.5" width="450" fill="#ffffff" y="-37.499999" height="449.999989" fill-opacity="1"/><rect x="-37.5" width="450" fill="#1a1f26" y="-37.499999" height="449.999989" fill-opacity="1"/><g transform="matrix(1, 0, 0, 1, 28, 24)"><g clip-path="url(#b536e95f58)"><g clip-path="url(#fd8245a2ab)"><g clip-path="url(#49d7ecd4c3)"><path stroke-linecap="butt" transform="matrix(5.172413, 0, 0, 5.172413, 9.500002, 10.356992)" fill="none" stroke-linejoin="miter" d="M 41.005553 -0.000294554 L 57.993968 16.988875 L 57.993968 42.214348 L 41.005553 59.202762 L 16.994456 59.202762 L 0.00604127 42.214348 L 0.00604127 16.988875 L 16.994456 -0.000294554 Z M 41.005553 -0.000294554 " stroke="#f5f7fa" stroke-width="0.58" stroke-opacity="1" stroke-miterlimit="4"/></g></g><g fill="#ffffff" fill-opacity="1"><g transform="translate(120.217427, 199.706873)"><g><path d="M 58.125 -95.5625 L 58.125 -2.765625 L 36.890625 -2.765625 L 36.890625 -74.109375 L 17.234375 -61.84375 L 8 -76.8125 L 38.8125 -95.5625 Z M 75.984375 -16.484375 L 75.984375 0 L 13.859375 0 L 13.859375 -16.484375 Z M 75.984375 -16.484375 "/></g></g></g></g></g></svg>