<svg xmlns="http://www.w3.org/2000/svg" xmlns:xlink="http://www.w3.org/1999/xlink" width="500" zoomAndPan="magnify" viewBox="28 28 313 318" height="500" preserveAspectRatio="xMidYMid meet" version="1.0"><defs><g/><clipPath id="4d4ffe9892"><path d="M 9.53125 9.5 L 303.3125 9.5 L 303.3125 308.410156 L 9.53125 308.410156 Z M 9.53125 9.5 " clip-rule="nonzero"/></clipPath><clipPath id="04ed695055"><path d="M 217.242188 9.5 L 303.3125 95.570312 L 303.3125 223.371094 L 217.242188 309.4375 L 95.597656 309.4375 L 9.53125 223.371094 L 9.53125 95.570312 L 95.597656 9.5 Z M 217.242188 9.5 " clip-rule="nonzero"/></clipPath><clipPath id="2d03e51059"><rect x="0" width="313" y="0" height="318"/></clipPath></defs><g transform="matrix(1, 0, 0, 1, 28, 28)"><g clip-path="url(#2d03e51059)"><g clip-path="url(#4d4ffe9892)"><g clip-path="url(#04ed695055)"><path stroke-linecap="butt" transform="matrix(5.066258, 0, 0, 5.066258, 9.500002, 9.499998)" fill="none" stroke-linejoin="miter" d="M 41.005052 0.000000486059 L 57.993983 16.988931 L 57.993983 42.214803 L 41.005052 59.202963 L 16.994328 59.202963 L 0.00616786 42.214803 L 0.00616786 16.988931 L 16.994328 0.000000486059 Z M 41.005052 0.000000486059 " stroke="#f5f7fa" stroke-width="0.592153" stroke-opacity="1" stroke-miterlimit="4"/></g></g><g fill="#ffffff" fill-opacity="1"><g transform="translate(117.945144, 194.963801)"><g><path d="M 37.28125 -95.96875 C 44.394531 -95.96875 50.347656 -94.726562 55.140625 -92.25 C 59.929688 -89.769531 63.53125 -86.492188 65.9375 -82.421875 C 68.351562 -78.347656 69.5625 -73.925781 69.5625 -69.15625 C 69.5625 -65.375 68.914062 -61.671875 67.625 -58.046875 C 66.34375 -54.421875 64.238281 -50.59375 61.3125 -46.5625 C 58.382812 -42.53125 54.5 -38.0625 49.65625 -33.15625 C 44.820312 -28.25 38.847656 -22.625 31.734375 -16.28125 L 71.71875 -16.28125 L 69.421875 0 L 7.21875 0 L 7.21875 -15.125 C 13.394531 -21.070312 18.753906 -26.335938 23.296875 -30.921875 C 27.847656 -35.515625 31.6875 -39.585938 34.8125 -43.140625 C 37.9375 -46.703125 40.457031 -49.878906 42.375 -52.671875 C 44.289062 -55.460938 45.675781 -58.039062 46.53125 -60.40625 C 47.382812 -62.769531 47.8125 -65.054688 47.8125 -67.265625 C 47.8125 -71.046875 46.71875 -74.035156 44.53125 -76.234375 C 42.351562 -78.441406 39.257812 -79.546875 35.25 -79.546875 C 31.695312 -79.546875 28.613281 -78.800781 26 -77.3125 C 23.382812 -75.832031 20.863281 -73.425781 18.4375 -70.09375 L 5.328125 -79.953125 C 8.847656 -84.816406 13.171875 -88.703125 18.296875 -91.609375 C 23.429688 -94.515625 29.757812 -95.96875 37.28125 -95.96875 Z M 37.28125 -95.96875 "/></g></g></g></g></g></svg>