<svg xmlns="http://www.w3.org/2000/svg" xmlns:xlink="http://www.w3.org/1999/xlink" width="500" zoomAndPan="magnify" viewBox="0 0 375 374.999991" height="500" preserveAspectRatio="xMidYMid meet" version="1.0"><defs><clipPath id="8aeb12e936"><path d="M 10.5 10.5 L 314.492188 10.5 L 314.492188 314.492188 L 10.5 314.492188 Z M 10.5 10.5 " clip-rule="nonzero"/></clipPath><clipPath id="39467d33e1"><path d="M 225.433594 10.5 L 314.492188 99.558594 L 314.492188 225.433594 L 225.433594 314.492188 L 99.558594 314.492188 L 10.5 225.433594 L 10.5 99.558594 L 99.558594 10.5 Z M 225.433594 10.5 " clip-rule="nonzero"/></clipPath><clipPath id="de588b44ad"><path d="M 131 85.234375 L 240.09375 85.234375 L 240.09375 193 L 131 193 Z M 131 85.234375 " clip-rule="nonzero"/></clipPath><clipPath id="465de69baa"><rect x="0" width="325" y="0" height="325"/></clipPath></defs><rect x="-37.5" width="450" fill="#ffffff" y="-37.499999" height="449.999989" fill-opacity="1"/><rect x="-37.5" width="450" fill="#1a1f26" y="-37.499999" height="449.999989" fill-opacity="1"/><g transform="matrix(1, 0, 0, 1, 27, 27)"><g clip-path="url(#465de69baa)"><g clip-path="url(#8aeb12e936)"><g clip-path="url(#39467d33e1)"><path stroke-linecap="butt" transform="matrix(5.241242, 0, 0, 5.241242, 10.500002, 10.499998)" fill="none" stroke-linejoin="miter" d="M 41.008143 0.000000469831 L 58.000031 16.991888 L 58.000031 41.008143 L 41.008143 58.000031 L 16.991888 58.000031 L -0.000000388744 41.008143 L -0.000000388744 16.991888 L 16.991888 0.000000469831 Z M 41.008143 0.000000469831 " stroke="#f5f7fa" stroke-width="0.572383" stroke-opacity="1" stroke-miterlimit="4"/></g></g><path fill="#f5f7fa" d="M 184.785156 140.523438 C 180.84375 136.582031 175.96875 133.566406 170.683594 131.816406 C 157.8125 144.691406 156.769531 145.175781 155.132812 149.082031 C 168.191406 148.226562 178.648438 160.171875 175.746094 173.230469 C 173.957031 181.304688 155.726562 197.265625 139.320312 214.046875 C 131.65625 221.859375 119.003906 221.785156 111.265625 214.046875 C 103.527344 206.308594 103.527344 193.730469 111.265625 185.992188 L 128.753906 168.503906 C 126.59375 160.46875 127.078125 151.984375 129.792969 144.429688 L 96.941406 177.285156 C 82.875 191.347656 82.875 214.269531 96.941406 228.371094 C 111.042969 242.472656 133.886719 242.472656 148.027344 228.371094 L 184.785156 191.609375 C 198.777344 177.621094 199 154.738281 184.785156 140.523438 Z M 184.785156 140.523438 " fill-opacity="1" fill-rule="nonzero"/><g clip-path="url(#de588b44ad)"><path fill="#f5f7fa" d="M 229.507812 146.886719 C 236.316406 140.078125 240.074219 131 240.074219 121.363281 C 240.074219 101.421875 223.929688 85.234375 203.949219 85.234375 C 194.3125 85.234375 185.234375 88.992188 178.421875 95.800781 C 169.234375 104.992188 150.851562 123.371094 141.664062 132.5625 C 127.710938 146.515625 127.414062 169.398438 141.664062 183.648438 C 145.605469 187.589844 150.480469 190.605469 155.765625 192.355469 C 168.5625 179.554688 169.679688 179.035156 171.316406 175.089844 C 165.660156 175.460938 160.117188 173.414062 156.023438 169.324219 C 148.210938 161.507812 148.359375 148.933594 156.023438 141.269531 C 162.871094 134.421875 180.136719 117.160156 187.128906 110.164062 C 194.871094 102.425781 207.445312 102.386719 215.183594 110.164062 C 222.921875 117.902344 222.921875 130.480469 215.183594 138.21875 L 197.695312 155.707031 C 199.890625 163.964844 199.371094 172.300781 196.65625 179.777344 Z M 229.507812 146.886719 " fill-opacity="1" fill-rule="nonzero"/></g></g></g></svg>