<svg xmlns="http://www.w3.org/2000/svg" viewBox="0 0 24 24" fill="currentColor">
  <path d="M11.7 2.805a.75.75 0 01.6 0A60.65 60.65 0 0122.83 8.72a.75.75 0 01-.231 1.337 49.949 49.949 0 00-9.902 3.912l-.003.002-.34.18a.75.75 0 01-.707 0 50.009 50.009 0 00-9.655-3.32.75.75 0 01-.231-1.337A60.653 60.653 0 0111.7 2.805z"/>
  <path d="M13.06 15.473a48.45 48.45 0 017.666-3.282c.134 1.414.22 2.843.255 4.285a.75.75 0 01-.46.71 47.878 47.878 0 00-8.105 4.342.75.75 0 01-.832 0 47.877 47.877 0 00-8.104-4.342.75.75 0 01-.461-.71c.035-1.442.121-2.87.255-4.286A48.4 48.4 0 016 13.18v1.27a1.5 1.5 0 00-.14 2.508c-.09.542-.187 1.083-.292 1.848a.75.75 0 00.73.81h4.014a.75.75 0 00.73-.81c-.105-.71-.202-1.306-.292-1.848A1.5 1.5 0 0010.61 14.45v-.98c.77.27 1.53.557 2.28.858z"/>
</svg>
