<svg xmlns="http://www.w3.org/2000/svg" xmlns:xlink="http://www.w3.org/1999/xlink" width="500" zoomAndPan="magnify" viewBox="45 45 285 285" height="500" preserveAspectRatio="xMidYMid meet" version="1.0"><defs><clipPath id="75b53f632a"><path d="M 8.613281 8.613281 L 276.386719 8.613281 L 276.386719 276.386719 L 8.613281 276.386719 Z M 8.613281 8.613281 " clip-rule="nonzero"/></clipPath><clipPath id="a01fee1e86"><path d="M 197.9375 8.613281 L 276.386719 87.0625 L 276.386719 197.9375 L 197.9375 276.386719 L 87.0625 276.386719 L 8.613281 197.9375 L 8.613281 87.0625 L 87.0625 8.613281 Z M 197.9375 8.613281 " clip-rule="nonzero"/></clipPath><clipPath id="09ee3ff5c4"><path d="M 74.144531 74.144531 L 211 74.144531 L 211 211 L 74.144531 211 Z M 74.144531 74.144531 " clip-rule="nonzero"/></clipPath><clipPath id="59f0d86ab4"><rect x="0" width="285" y="0" height="285"/></clipPath></defs><g transform="matrix(1, 0, 0, 1, 45, 45)"><g clip-path="url(#59f0d86ab4)"><g clip-path="url(#75b53f632a)"><g clip-path="url(#a01fee1e86)"><path stroke-linecap="butt" transform="matrix(4.616822, 0, 0, 4.616822, 8.612162, 8.612157)" fill="none" stroke-linejoin="miter" d="M 41.00772 0.000243468 L 57.999759 16.992283 L 57.999759 41.007721 L 41.00772 57.99976 L 16.992282 57.99976 L 0.000242494 41.007721 L 0.000242494 16.992283 L 16.992282 0.000243468 Z M 41.00772 0.000243468 " stroke="#f5f7fa" stroke-width="0.649798" stroke-opacity="1" stroke-miterlimit="4"/></g></g><g clip-path="url(#09ee3ff5c4)"><path fill="#f5f7fa" d="M 203.386719 74.824219 C 202.785156 75.199219 173.515625 104.316406 138.371094 139.539062 C 88.421875 189.5625 74.445312 203.765625 74.257812 204.667969 C 73.617188 207.945312 76.179688 210.847656 79.71875 210.847656 L 81.339844 210.847656 L 145.867188 146.320312 C 194.761719 97.425781 210.433594 81.527344 210.695312 80.585938 C 211.863281 76.480469 206.964844 72.601562 203.386719 74.824219 Z M 203.386719 74.824219 " fill-opacity="1" fill-rule="nonzero"/></g><path fill="#f5f7fa" d="M 85.21875 112.679688 C 83.410156 113.171875 82.882812 113.472656 81.039062 115.128906 C 78.703125 117.238281 77.574219 121.496094 78.476562 124.847656 C 79.117188 127.144531 81.039062 129.480469 83.375 130.6875 L 85.371094 131.742188 L 140.140625 131.742188 L 149.519531 122.324219 C 154.71875 117.125 159.011719 112.71875 159.050781 112.53125 C 159.277344 111.925781 87.441406 112.078125 85.21875 112.679688 Z M 85.21875 112.679688 " fill-opacity="1" fill-rule="nonzero"/><path fill="#f5f7fa" d="M 190.015625 112.417969 L 185.644531 112.566406 L 176.078125 122.136719 L 166.472656 131.742188 L 201.917969 131.742188 L 203.878906 130.761719 C 211.222656 127.109375 210.808594 116.183594 203.238281 113.019531 C 201.769531 112.378906 197.132812 112.191406 190.015625 112.417969 Z M 190.015625 112.417969 " fill-opacity="1" fill-rule="nonzero"/><path fill="#f5f7fa" d="M 84.390625 154.15625 C 80.8125 155.433594 78.476562 158.75 78.214844 162.894531 C 77.988281 165.984375 78.855469 168.242188 80.964844 170.351562 C 83.375 172.761719 85.03125 173.175781 92.414062 173.175781 L 98.667969 173.175781 L 118.253906 153.589844 L 102.058594 153.589844 C 89.289062 153.628906 85.558594 153.738281 84.390625 154.15625 Z M 84.390625 154.15625 " fill-opacity="1" fill-rule="nonzero"/><path fill="#f5f7fa" d="M 134.941406 163.195312 C 129.59375 168.46875 125.222656 172.875 125.222656 172.988281 C 125.222656 173.101562 142.324219 173.175781 163.230469 173.175781 C 204.441406 173.175781 202.785156 173.253906 205.609375 171.105469 C 206.289062 170.578125 207.34375 169.261719 207.945312 168.207031 C 208.886719 166.511719 209.039062 165.792969 209.039062 163.382812 C 209.039062 160.972656 208.886719 160.257812 207.90625 158.523438 C 206.703125 156.300781 205.082031 154.90625 202.9375 154.117188 C 201.769531 153.738281 195.855469 153.628906 173.0625 153.628906 L 144.625 153.628906 Z M 134.941406 163.195312 " fill-opacity="1" fill-rule="nonzero"/></g></g></svg>