<svg xmlns="http://www.w3.org/2000/svg" xmlns:xlink="http://www.w3.org/1999/xlink" width="500" zoomAndPan="magnify" viewBox="34 34 307 307" height="500" preserveAspectRatio="xMidYMid meet" version="1.0"><defs><clipPath id="fb8f189d3e"><path d="M 9.617188 9.617188 L 297.382812 9.617188 L 297.382812 297.382812 L 9.617188 297.382812 Z M 9.617188 9.617188 " clip-rule="nonzero"/></clipPath><clipPath id="d988c38386"><path d="M 213.078125 9.617188 L 297.382812 93.921875 L 297.382812 213.078125 L 213.078125 297.382812 L 93.921875 297.382812 L 9.617188 213.078125 L 9.617188 93.921875 L 93.921875 9.617188 Z M 213.078125 9.617188 " clip-rule="nonzero"/></clipPath><clipPath id="aae42008cc"><path d="M 80.839844 79.570312 L 229 79.570312 L 229 228 L 80.839844 228 Z M 80.839844 79.570312 " clip-rule="nonzero"/></clipPath><clipPath id="40635d7191"><rect x="0" width="307" y="0" height="307"/></clipPath></defs><g transform="matrix(1, 0, 0, 1, 34, 34)"><g clip-path="url(#40635d7191)"><g clip-path="url(#fb8f189d3e)"><g clip-path="url(#d988c38386)"><path stroke-linecap="butt" transform="matrix(4.961484, 0, 0, 4.961484, 9.616922, 9.616917)" fill="none" stroke-linejoin="miter" d="M 41.008131 0.0000544765 L 57.999959 16.991882 L 57.999959 41.008132 L 41.008131 57.99996 L 16.991881 57.99996 L 0.0000535695 41.008132 L 0.0000535695 16.991882 L 16.991881 0.0000544765 Z M 41.008131 0.0000544765 " stroke="#f5f7fa" stroke-width="0.604658" stroke-opacity="1" stroke-miterlimit="4"/></g></g><g clip-path="url(#aae42008cc)"><path fill="#f5f7fa" d="M 154.757812 79.570312 C 113.933594 79.570312 80.839844 112.664062 80.839844 153.488281 C 80.839844 194.316406 113.933594 227.40625 154.757812 227.40625 C 195.582031 227.40625 228.675781 194.316406 228.675781 153.488281 C 228.675781 112.664062 195.582031 79.570312 154.757812 79.570312 Z M 154.757812 216.328125 C 120.066406 216.328125 91.921875 188.210938 91.921875 153.488281 C 91.921875 118.765625 120.066406 90.652344 154.757812 90.652344 C 189.449219 90.652344 217.597656 118.765625 217.597656 153.488281 C 217.597656 188.210938 189.480469 216.328125 154.757812 216.328125 Z M 154.757812 216.328125 " fill-opacity="1" fill-rule="nonzero"/></g><path fill="#f5f7fa" d="M 205.035156 153.488281 C 205.035156 181.25 182.519531 203.765625 154.757812 203.765625 C 127 203.765625 104.480469 181.25 104.480469 153.488281 C 104.480469 125.730469 127 103.214844 154.757812 103.214844 C 182.519531 103.214844 205.035156 125.730469 205.035156 153.488281 Z M 205.035156 153.488281 " fill-opacity="1" fill-rule="nonzero"/></g></g></svg>