<svg xmlns="http://www.w3.org/2000/svg" xmlns:xlink="http://www.w3.org/1999/xlink" width="500" zoomAndPan="magnify" viewBox="0 0 375 374.999991" height="500" preserveAspectRatio="xMidYMid meet" version="1.0"><defs><clipPath id="bab81812af"><path d="M 6.554688 7.019531 L 49.511719 7.019531 L 49.511719 49.980469 L 6.554688 49.980469 Z M 6.554688 7.019531 " clip-rule="nonzero"/></clipPath><clipPath id="94ee06a486"><path d="M 28.03125 7.019531 C 16.171875 7.019531 6.554688 16.636719 6.554688 28.5 C 6.554688 40.363281 16.171875 49.980469 28.03125 49.980469 C 39.894531 49.980469 49.511719 40.363281 49.511719 28.5 C 49.511719 16.636719 39.894531 7.019531 28.03125 7.019531 Z M 28.03125 7.019531 " clip-rule="nonzero"/></clipPath><clipPath id="f99e87eb80"><path d="M 0.554688 0.0195312 L 43.511719 0.0195312 L 43.511719 42.980469 L 0.554688 42.980469 Z M 0.554688 0.0195312 " clip-rule="nonzero"/></clipPath><clipPath id="0b62143cc0"><path d="M 22.03125 0.0195312 C 10.171875 0.0195312 0.554688 9.636719 0.554688 21.5 C 0.554688 33.363281 10.171875 42.980469 22.03125 42.980469 C 33.894531 42.980469 43.511719 33.363281 43.511719 21.5 C 43.511719 9.636719 33.894531 0.0195312 22.03125 0.0195312 Z M 22.03125 0.0195312 " clip-rule="nonzero"/></clipPath><clipPath id="559531525a"><rect x="0" width="44" y="0" height="43"/></clipPath><clipPath id="72e48b7a7b"><path d="M 6.554688 7.019531 L 49.507812 7.019531 L 49.507812 49.976562 L 6.554688 49.976562 Z M 6.554688 7.019531 " clip-rule="nonzero"/></clipPath><clipPath id="3d58dda720"><path d="M 28.03125 7.019531 C 16.167969 7.019531 6.554688 16.636719 6.554688 28.5 C 6.554688 40.359375 16.167969 49.976562 28.03125 49.976562 C 39.894531 49.976562 49.507812 40.359375 49.507812 28.5 C 49.507812 16.636719 39.894531 7.019531 28.03125 7.019531 Z M 28.03125 7.019531 " clip-rule="nonzero"/></clipPath><clipPath id="94b96999d0"><path d="M 62.132812 7.019531 L 105.089844 7.019531 L 105.089844 49.980469 L 62.132812 49.980469 Z M 62.132812 7.019531 " clip-rule="nonzero"/></clipPath><clipPath id="c206b32252"><path d="M 83.613281 7.019531 C 71.75 7.019531 62.132812 16.636719 62.132812 28.5 C 62.132812 40.363281 71.75 49.980469 83.613281 49.980469 C 95.476562 49.980469 105.089844 40.363281 105.089844 28.5 C 105.089844 16.636719 95.476562 7.019531 83.613281 7.019531 Z M 83.613281 7.019531 " clip-rule="nonzero"/></clipPath><clipPath id="23b509dc84"><path d="M 0.132812 0.0195312 L 43.089844 0.0195312 L 43.089844 42.980469 L 0.132812 42.980469 Z M 0.132812 0.0195312 " clip-rule="nonzero"/></clipPath><clipPath id="67337ce55b"><path d="M 21.613281 0.0195312 C 9.75 0.0195312 0.132812 9.636719 0.132812 21.5 C 0.132812 33.363281 9.75 42.980469 21.613281 42.980469 C 33.476562 42.980469 43.089844 33.363281 43.089844 21.5 C 43.089844 9.636719 33.476562 0.0195312 21.613281 0.0195312 Z M 21.613281 0.0195312 " clip-rule="nonzero"/></clipPath><clipPath id="1fc2204fad"><rect x="0" width="44" y="0" height="43"/></clipPath><clipPath id="3403d80780"><path d="M 62.132812 7.019531 L 105.089844 7.019531 L 105.089844 49.976562 L 62.132812 49.976562 Z M 62.132812 7.019531 " clip-rule="nonzero"/></clipPath><clipPath id="1c1c53ab68"><path d="M 83.609375 7.019531 C 71.75 7.019531 62.132812 16.636719 62.132812 28.5 C 62.132812 40.359375 71.75 49.976562 83.609375 49.976562 C 95.472656 49.976562 105.089844 40.359375 105.089844 28.5 C 105.089844 16.636719 95.472656 7.019531 83.609375 7.019531 Z M 83.609375 7.019531 " clip-rule="nonzero"/></clipPath><clipPath id="f499065972"><path d="M 119.105469 7.019531 L 162.0625 7.019531 L 162.0625 49.980469 L 119.105469 49.980469 Z M 119.105469 7.019531 " clip-rule="nonzero"/></clipPath><clipPath id="c38ad37403"><path d="M 140.582031 7.019531 C 128.722656 7.019531 119.105469 16.636719 119.105469 28.5 C 119.105469 40.363281 128.722656 49.980469 140.582031 49.980469 C 152.445312 49.980469 162.0625 40.363281 162.0625 28.5 C 162.0625 16.636719 152.445312 7.019531 140.582031 7.019531 Z M 140.582031 7.019531 " clip-rule="nonzero"/></clipPath><clipPath id="d1b0d39215"><path d="M 0.105469 0.0195312 L 43.0625 0.0195312 L 43.0625 42.980469 L 0.105469 42.980469 Z M 0.105469 0.0195312 " clip-rule="nonzero"/></clipPath><clipPath id="6c84d1b39c"><path d="M 21.582031 0.0195312 C 9.722656 0.0195312 0.105469 9.636719 0.105469 21.5 C 0.105469 33.363281 9.722656 42.980469 21.582031 42.980469 C 33.445312 42.980469 43.0625 33.363281 43.0625 21.5 C 43.0625 9.636719 33.445312 0.0195312 21.582031 0.0195312 Z M 21.582031 0.0195312 " clip-rule="nonzero"/></clipPath><clipPath id="9672c686e3"><rect x="0" width="44" y="0" height="43"/></clipPath><clipPath id="3c6b70135a"><path d="M 119.105469 7.019531 L 162.058594 7.019531 L 162.058594 49.976562 L 119.105469 49.976562 Z M 119.105469 7.019531 " clip-rule="nonzero"/></clipPath><clipPath id="9865369372"><path d="M 140.582031 7.019531 C 128.71875 7.019531 119.105469 16.636719 119.105469 28.5 C 119.105469 40.359375 128.71875 49.976562 140.582031 49.976562 C 152.445312 49.976562 162.058594 40.359375 162.058594 28.5 C 162.058594 16.636719 152.445312 7.019531 140.582031 7.019531 Z M 140.582031 7.019531 " clip-rule="nonzero"/></clipPath><clipPath id="60f20c3e84"><path d="M 175.898438 7.019531 L 218.855469 7.019531 L 218.855469 49.980469 L 175.898438 49.980469 Z M 175.898438 7.019531 " clip-rule="nonzero"/></clipPath><clipPath id="816ac96f17"><path d="M 197.378906 7.019531 C 185.515625 7.019531 175.898438 16.636719 175.898438 28.5 C 175.898438 40.363281 185.515625 49.980469 197.378906 49.980469 C 209.242188 49.980469 218.855469 40.363281 218.855469 28.5 C 218.855469 16.636719 209.242188 7.019531 197.378906 7.019531 Z M 197.378906 7.019531 " clip-rule="nonzero"/></clipPath><clipPath id="b162176cb3"><path d="M 0.898438 0.0195312 L 43.855469 0.0195312 L 43.855469 42.980469 L 0.898438 42.980469 Z M 0.898438 0.0195312 " clip-rule="nonzero"/></clipPath><clipPath id="b3f86a3500"><path d="M 22.378906 0.0195312 C 10.515625 0.0195312 0.898438 9.636719 0.898438 21.5 C 0.898438 33.363281 10.515625 42.980469 22.378906 42.980469 C 34.242188 42.980469 43.855469 33.363281 43.855469 21.5 C 43.855469 9.636719 34.242188 0.0195312 22.378906 0.0195312 Z M 22.378906 0.0195312 " clip-rule="nonzero"/></clipPath><clipPath id="57316206d8"><rect x="0" width="44" y="0" height="43"/></clipPath><clipPath id="4a149851b6"><path d="M 175.898438 7.019531 L 218.855469 7.019531 L 218.855469 49.976562 L 175.898438 49.976562 Z M 175.898438 7.019531 " clip-rule="nonzero"/></clipPath><clipPath id="d60fcf23e2"><path d="M 197.375 7.019531 C 185.515625 7.019531 175.898438 16.636719 175.898438 28.5 C 175.898438 40.359375 185.515625 49.976562 197.375 49.976562 C 209.238281 49.976562 218.855469 40.359375 218.855469 28.5 C 218.855469 16.636719 209.238281 7.019531 197.375 7.019531 Z M 197.375 7.019531 " clip-rule="nonzero"/></clipPath><clipPath id="472d5803f0"><path d="M 232.695312 7.019531 L 275.652344 7.019531 L 275.652344 49.980469 L 232.695312 49.980469 Z M 232.695312 7.019531 " clip-rule="nonzero"/></clipPath><clipPath id="bfebf9cd26"><path d="M 254.171875 7.019531 C 242.308594 7.019531 232.695312 16.636719 232.695312 28.5 C 232.695312 40.363281 242.308594 49.980469 254.171875 49.980469 C 266.035156 49.980469 275.652344 40.363281 275.652344 28.5 C 275.652344 16.636719 266.035156 7.019531 254.171875 7.019531 Z M 254.171875 7.019531 " clip-rule="nonzero"/></clipPath><clipPath id="e5a72b77bd"><path d="M 0.695312 0.0195312 L 43.652344 0.0195312 L 43.652344 42.980469 L 0.695312 42.980469 Z M 0.695312 0.0195312 " clip-rule="nonzero"/></clipPath><clipPath id="c1b41e9d6b"><path d="M 22.171875 0.0195312 C 10.308594 0.0195312 0.695312 9.636719 0.695312 21.5 C 0.695312 33.363281 10.308594 42.980469 22.171875 42.980469 C 34.035156 42.980469 43.652344 33.363281 43.652344 21.5 C 43.652344 9.636719 34.035156 0.0195312 22.171875 0.0195312 Z M 22.171875 0.0195312 " clip-rule="nonzero"/></clipPath><clipPath id="f73506c7d3"><rect x="0" width="44" y="0" height="43"/></clipPath><clipPath id="43992987dd"><path d="M 232.695312 7.019531 L 275.648438 7.019531 L 275.648438 49.976562 L 232.695312 49.976562 Z M 232.695312 7.019531 " clip-rule="nonzero"/></clipPath><clipPath id="c84ade371e"><path d="M 254.171875 7.019531 C 242.308594 7.019531 232.695312 16.636719 232.695312 28.5 C 232.695312 40.359375 242.308594 49.976562 254.171875 49.976562 C 266.03125 49.976562 275.648438 40.359375 275.648438 28.5 C 275.648438 16.636719 266.03125 7.019531 254.171875 7.019531 Z M 254.171875 7.019531 " clip-rule="nonzero"/></clipPath><clipPath id="4011727aa1"><path d="M 289.488281 7.019531 L 332.445312 7.019531 L 332.445312 49.980469 L 289.488281 49.980469 Z M 289.488281 7.019531 " clip-rule="nonzero"/></clipPath><clipPath id="1ce2cf1041"><path d="M 310.96875 7.019531 C 299.105469 7.019531 289.488281 16.636719 289.488281 28.5 C 289.488281 40.363281 299.105469 49.980469 310.96875 49.980469 C 322.828125 49.980469 332.445312 40.363281 332.445312 28.5 C 332.445312 16.636719 322.828125 7.019531 310.96875 7.019531 Z M 310.96875 7.019531 " clip-rule="nonzero"/></clipPath><clipPath id="d531eb455a"><path d="M 0.488281 0.0195312 L 43.445312 0.0195312 L 43.445312 42.980469 L 0.488281 42.980469 Z M 0.488281 0.0195312 " clip-rule="nonzero"/></clipPath><clipPath id="bde9162791"><path d="M 21.96875 0.0195312 C 10.105469 0.0195312 0.488281 9.636719 0.488281 21.5 C 0.488281 33.363281 10.105469 42.980469 21.96875 42.980469 C 33.828125 42.980469 43.445312 33.363281 43.445312 21.5 C 43.445312 9.636719 33.828125 0.0195312 21.96875 0.0195312 Z M 21.96875 0.0195312 " clip-rule="nonzero"/></clipPath><clipPath id="3b90c091e2"><rect x="0" width="44" y="0" height="43"/></clipPath><clipPath id="8601df652c"><path d="M 289.488281 7.019531 L 332.441406 7.019531 L 332.441406 49.976562 L 289.488281 49.976562 Z M 289.488281 7.019531 " clip-rule="nonzero"/></clipPath><clipPath id="78c8bc2188"><path d="M 310.964844 7.019531 C 299.105469 7.019531 289.488281 16.636719 289.488281 28.5 C 289.488281 40.359375 299.105469 49.976562 310.964844 49.976562 C 322.828125 49.976562 332.441406 40.359375 332.441406 28.5 C 332.441406 16.636719 322.828125 7.019531 310.964844 7.019531 Z M 310.964844 7.019531 " clip-rule="nonzero"/></clipPath><clipPath id="5f82ae4e7a"><rect x="0" width="339" y="0" height="57"/></clipPath></defs><g transform="matrix(1, 0, 0, 1, 18, 159)"><g clip-path="url(#5f82ae4e7a)"><path stroke-linecap="butt" transform="matrix(0.286392, 0, 0, 0.286392, 30.8267, 25.922463)" fill="none" stroke-linejoin="miter" d="M 0.00497397 9.000027 L 903.172894 9.000027 " stroke="#ffffff" stroke-width="18" stroke-opacity="1" stroke-miterlimit="4"/><g clip-path="url(#bab81812af)"><g clip-path="url(#94ee06a486)"><g transform="matrix(1, 0, 0, 1, 6, 7)"><g clip-path="url(#559531525a)"><g clip-path="url(#f99e87eb80)"><g clip-path="url(#0b62143cc0)"><path fill="#1a1f26" d="M 0.554688 0.0195312 L 43.511719 0.0195312 L 43.511719 42.980469 L 0.554688 42.980469 Z M 0.554688 0.0195312 " fill-opacity="1" fill-rule="nonzero"/></g></g></g></g></g></g><g clip-path="url(#72e48b7a7b)"><g clip-path="url(#3d58dda720)"><path stroke-linecap="butt" transform="matrix(0.286392, 0, 0, 0.286392, 6.554142, 7.021044)" fill="none" stroke-linejoin="miter" d="M 74.99197 -0.00528174 C 33.568756 -0.00528174 0.00190387 33.57521 0.00190387 74.998424 C 0.00190387 116.407999 33.568756 149.988491 74.99197 149.988491 C 116.415184 149.988491 149.982037 116.407999 149.982037 74.998424 C 149.982037 33.57521 116.415184 -0.00528174 74.99197 -0.00528174 Z M 74.99197 -0.00528174 " stroke="#f5f7fa" stroke-width="10.475148" stroke-opacity="1" stroke-miterlimit="4"/></g></g><g clip-path="url(#94b96999d0)"><g clip-path="url(#c206b32252)"><g transform="matrix(1, 0, 0, 1, 62, 7)"><g clip-path="url(#1fc2204fad)"><g clip-path="url(#23b509dc84)"><g clip-path="url(#67337ce55b)"><path fill="#1a1f26" d="M 0.132812 0.0195312 L 43.089844 0.0195312 L 43.089844 42.980469 L 0.132812 42.980469 Z M 0.132812 0.0195312 " fill-opacity="1" fill-rule="nonzero"/></g></g></g></g></g></g><g clip-path="url(#3403d80780)"><g clip-path="url(#1c1c53ab68)"><path stroke-linecap="butt" transform="matrix(0.286392, 0, 0, 0.286392, 62.133626, 7.021044)" fill="none" stroke-linejoin="miter" d="M 74.987227 -0.00528174 C 33.577652 -0.00528174 -0.00283925 33.57521 -0.00283925 74.998424 C -0.00283925 116.407999 33.577652 149.988491 74.987227 149.988491 C 116.410441 149.988491 149.990933 116.407999 149.990933 74.998424 C 149.990933 33.57521 116.410441 -0.00528174 74.987227 -0.00528174 Z M 74.987227 -0.00528174 " stroke="#f5f7fa" stroke-width="10.475148" stroke-opacity="1" stroke-miterlimit="4"/></g></g><g clip-path="url(#f499065972)"><g clip-path="url(#c38ad37403)"><g transform="matrix(1, 0, 0, 1, 119, 7)"><g clip-path="url(#9672c686e3)"><g clip-path="url(#d1b0d39215)"><g clip-path="url(#6c84d1b39c)"><path fill="#1a1f26" d="M 0.105469 0.0195312 L 43.0625 0.0195312 L 43.0625 42.980469 L 0.105469 42.980469 Z M 0.105469 0.0195312 " fill-opacity="1" fill-rule="nonzero"/></g></g></g></g></g></g><g clip-path="url(#3c6b70135a)"><g clip-path="url(#9865369372)"><path stroke-linecap="butt" transform="matrix(0.286392, 0, 0, 0.286392, 119.104947, 7.021044)" fill="none" stroke-linejoin="miter" d="M 74.991889 -0.00528174 C 33.568675 -0.00528174 0.00182286 33.57521 0.00182286 74.998424 C 0.00182286 116.407999 33.568675 149.988491 74.991889 149.988491 C 116.415103 149.988491 149.981956 116.407999 149.981956 74.998424 C 149.981956 33.57521 116.415103 -0.00528174 74.991889 -0.00528174 Z M 74.991889 -0.00528174 " stroke="#f5f7fa" stroke-width="10.475148" stroke-opacity="1" stroke-miterlimit="4"/></g></g><g clip-path="url(#60f20c3e84)"><g clip-path="url(#816ac96f17)"><g transform="matrix(1, 0, 0, 1, 175, 7)"><g clip-path="url(#57316206d8)"><g clip-path="url(#b162176cb3)"><g clip-path="url(#b3f86a3500)"><path fill="#1a1f26" d="M 0.898438 0.0195312 L 43.855469 0.0195312 L 43.855469 42.980469 L 0.898438 42.980469 Z M 0.898438 0.0195312 " fill-opacity="1" fill-rule="nonzero"/></g></g></g></g></g></g><g clip-path="url(#4a149851b6)"><g clip-path="url(#d60fcf23e2)"><path stroke-linecap="butt" transform="matrix(0.286392, 0, 0, 0.286392, 175.899265, 7.021044)" fill="none" stroke-linejoin="miter" d="M 74.987176 -0.00528174 C 33.577601 -0.00528174 -0.00289068 33.57521 -0.00289068 74.998424 C -0.00289068 116.407999 33.577601 149.988491 74.987176 149.988491 C 116.41039 149.988491 149.990882 116.407999 149.990882 74.998424 C 149.990882 33.57521 116.41039 -0.00528174 74.987176 -0.00528174 Z M 74.987176 -0.00528174 " stroke="#f5f7fa" stroke-width="10.475148" stroke-opacity="1" stroke-miterlimit="4"/></g></g><g clip-path="url(#472d5803f0)"><g clip-path="url(#bfebf9cd26)"><g transform="matrix(1, 0, 0, 1, 232, 7)"><g clip-path="url(#f73506c7d3)"><g clip-path="url(#e5a72b77bd)"><g clip-path="url(#c1b41e9d6b)"><path fill="#1a1f26" d="M 0.695312 0.0195312 L 43.652344 0.0195312 L 43.652344 42.980469 L 0.695312 42.980469 Z M 0.695312 0.0195312 " fill-opacity="1" fill-rule="nonzero"/></g></g></g></g></g></g><g clip-path="url(#43992987dd)"><g clip-path="url(#c84ade371e)"><path stroke-linecap="butt" transform="matrix(0.286392, 0, 0, 0.286392, 232.693582, 7.021044)" fill="none" stroke-linejoin="miter" d="M 74.99611 -0.00528174 C 33.572896 -0.00528174 0.00604368 33.57521 0.00604368 74.998424 C 0.00604368 116.407999 33.572896 149.988491 74.99611 149.988491 C 116.405685 149.988491 149.986176 116.407999 149.986176 74.998424 C 149.986176 33.57521 116.405685 -0.00528174 74.99611 -0.00528174 Z M 74.99611 -0.00528174 " stroke="#f5f7fa" stroke-width="10.475148" stroke-opacity="1" stroke-miterlimit="4"/></g></g><g clip-path="url(#4011727aa1)"><g clip-path="url(#1ce2cf1041)"><g transform="matrix(1, 0, 0, 1, 289, 7)"><g clip-path="url(#3b90c091e2)"><g clip-path="url(#d531eb455a)"><g clip-path="url(#bde9162791)"><path fill="#1a1f26" d="M 0.488281 0.0195312 L 43.445312 0.0195312 L 43.445312 42.980469 L 0.488281 42.980469 Z M 0.488281 0.0195312 " fill-opacity="1" fill-rule="nonzero"/></g></g></g></g></g></g><g clip-path="url(#8601df652c)"><g clip-path="url(#78c8bc2188)"><path stroke-linecap="butt" transform="matrix(0.286392, 0, 0, 0.286392, 289.487884, 7.021044)" fill="none" stroke-linejoin="miter" d="M 74.991455 -0.00528174 C 33.581881 -0.00528174 0.0013888 33.57521 0.0013888 74.998424 C 0.0013888 116.407999 33.581881 149.988491 74.991455 149.988491 C 116.414669 149.988491 149.981522 116.407999 149.981522 74.998424 C 149.981522 33.57521 116.414669 -0.00528174 74.991455 -0.00528174 Z M 74.991455 -0.00528174 " stroke="#f5f7fa" stroke-width="10.475148" stroke-opacity="1" stroke-miterlimit="4"/></g></g></g></g></svg>