<svg xmlns="http://www.w3.org/2000/svg" xmlns:xlink="http://www.w3.org/1999/xlink" width="500" zoomAndPan="magnify" viewBox="28 34 307 307" height="500" preserveAspectRatio="xMidYMid meet" version="1.0"><defs><clipPath id="15d3aa5928"><path d="M 9.5 9.71875 L 297.066406 9.71875 L 297.066406 297.28125 L 9.5 297.28125 Z M 9.5 9.71875 " clip-rule="nonzero"/></clipPath><clipPath id="7e0bb4c35c"><path d="M 212.816406 9.71875 L 297.066406 93.964844 L 297.066406 213.035156 L 212.816406 297.28125 L 93.746094 297.28125 L 9.5 213.035156 L 9.5 93.964844 L 93.746094 9.71875 Z M 212.816406 9.71875 " clip-rule="nonzero"/></clipPath><clipPath id="205a496b47"><path d="M 98.4375 69.214844 L 242.21875 69.214844 L 242.21875 237.785156 L 98.4375 237.785156 Z M 98.4375 69.214844 " clip-rule="nonzero"/></clipPath><clipPath id="7220132c73"><rect x="0" width="307" y="0" height="307"/></clipPath></defs><g transform="matrix(1, 0, 0, 1, 28, 34)"><g clip-path="url(#7220132c73)"><g clip-path="url(#15d3aa5928)"><g clip-path="url(#7e0bb4c35c)"><path stroke-linecap="butt" transform="matrix(4.958013, 0, 0, 4.958013, 9.500002, 9.717614)" fill="none" stroke-linejoin="miter" d="M 41.00764 0.000229074 L 58.000335 16.992136 L 58.000335 41.00787 L 41.00764 57.999777 L 16.991907 57.999777 L -0.000000410951 41.00787 L -0.000000410951 16.992136 L 16.991907 0.000229074 Z M 41.00764 0.000229074 " stroke="#f5f7fa" stroke-width="0.605081" stroke-opacity="1" stroke-miterlimit="4"/></g></g><g clip-path="url(#205a496b47)"><path fill="#f5f7fa" d="M 239.945312 146.921875 L 110.015625 70.292969 C 107.652344 68.898438 104.726562 68.875 102.320312 70.238281 C 99.929688 71.601562 98.457031 74.136719 98.457031 76.890625 L 98.457031 230.148438 C 98.457031 232.898438 99.929688 235.433594 102.320312 236.800781 C 103.5 237.472656 104.8125 237.8125 106.121094 237.8125 C 107.46875 237.8125 108.820312 237.457031 110.015625 236.746094 L 239.945312 160.117188 C 242.277344 158.746094 243.714844 156.230469 243.714844 153.519531 C 243.714844 150.804688 242.277344 148.292969 239.945312 146.921875 Z M 239.945312 146.921875 " fill-opacity="1" fill-rule="nonzero"/></g></g></g></svg>