<svg xmlns="http://www.w3.org/2000/svg" xmlns:xlink="http://www.w3.org/1999/xlink" width="500" zoomAndPan="magnify" viewBox="36 35 300 300" height="500" preserveAspectRatio="xMidYMid meet" version="1.0"><defs><clipPath id="0b0df8c3c6"><path d="M 9.550781 9.582031 L 290.617188 9.582031 L 290.617188 290.648438 L 9.550781 290.648438 Z M 9.550781 9.582031 " clip-rule="nonzero"/></clipPath><clipPath id="fe35be59de"><path d="M 208.273438 9.582031 L 290.617188 91.925781 L 290.617188 208.304688 L 208.273438 290.648438 L 91.894531 290.648438 L 9.550781 208.304688 L 9.550781 91.925781 L 91.894531 9.582031 Z M 208.273438 9.582031 " clip-rule="nonzero"/></clipPath><clipPath id="da0fcf25b6"><path d="M 106.050781 78.367188 L 193.277344 78.367188 L 193.277344 181 L 106.050781 181 Z M 106.050781 78.367188 " clip-rule="nonzero"/></clipPath><clipPath id="31a508d1a8"><rect x="0" width="300" y="0" height="300"/></clipPath></defs><g transform="matrix(1, 0, 0, 1, 36, 35)"><g clip-path="url(#31a508d1a8)"><g clip-path="url(#0b0df8c3c6)"><g clip-path="url(#fe35be59de)"><path stroke-linecap="butt" transform="matrix(4.845967, 0, 0, 4.845967, 9.551405, 9.582051)" fill="none" stroke-linejoin="miter" d="M 41.007716 -0.00000417305 L 57.999939 16.992219 L 57.999939 41.00784 L 41.007716 58.000063 L 16.992094 58.000063 L -0.000128787 41.00784 L -0.000128787 16.992219 L 16.992094 -0.00000417305 Z M 41.007716 -0.00000417305 " stroke="#f5f7fa" stroke-width="0.619071" stroke-opacity="1" stroke-miterlimit="4"/></g></g><g clip-path="url(#da0fcf25b6)"><path fill="#f5f7fa" d="M 188.289062 95.011719 C 184.5 89.617188 179.277344 85.484375 172.621094 82.644531 C 165.992188 79.800781 158.328125 78.367188 149.664062 78.367188 C 141.773438 78.367188 134.570312 79.773438 128.054688 82.585938 C 121.539062 85.371094 116.289062 89.644531 112.328125 95.296875 C 109.171875 99.804688 107.21875 105.257812 106.417969 111.65625 C 106.074219 114.441406 108.28125 116.90625 111.09375 116.90625 L 128.542969 116.90625 C 130.78125 116.90625 132.675781 115.328125 133.164062 113.148438 C 133.59375 111.195312 134.308594 109.445312 135.316406 107.953125 C 136.921875 105.542969 138.988281 103.707031 141.511719 102.472656 C 144.039062 101.238281 146.707031 100.609375 149.546875 100.609375 C 152.476562 100.609375 155.117188 101.210938 157.554688 102.445312 C 159.964844 103.648438 161.886719 105.398438 163.324219 107.667969 C 164.757812 109.933594 165.476562 112.546875 165.476562 115.558594 C 165.476562 118.398438 164.84375 120.953125 163.582031 123.222656 C 162.320312 125.488281 160.625 127.582031 158.503906 129.449219 C 156.351562 131.34375 153.96875 133.121094 151.269531 134.871094 C 147.65625 137.140625 144.554688 139.664062 142 142.449219 C 139.417969 145.230469 137.496094 148.875 136.148438 153.410156 C 134.828125 157.945312 134.136719 164 134.109375 171.605469 L 134.109375 175.394531 C 134.109375 177.976562 136.203125 180.097656 138.816406 180.097656 L 154.167969 180.097656 C 156.75 180.097656 158.875 178.003906 158.875 175.394531 L 158.875 171.605469 C 158.933594 167.328125 159.476562 163.742188 160.539062 160.84375 C 161.601562 157.945312 163.238281 155.363281 165.417969 153.152344 C 167.628906 150.941406 170.441406 148.820312 173.882812 146.753906 C 177.988281 144.3125 181.515625 141.585938 184.53125 138.546875 C 187.515625 135.53125 189.867188 132.03125 191.5625 128.101562 C 193.226562 124.167969 194.085938 119.632812 194.085938 114.554688 C 194 106.921875 192.078125 100.40625 188.289062 95.011719 Z M 188.289062 95.011719 " fill-opacity="1" fill-rule="nonzero"/></g><path fill="#f5f7fa" d="M 146.964844 190.660156 C 142.605469 190.660156 138.902344 192.179688 135.832031 195.222656 C 132.761719 198.265625 131.238281 201.9375 131.296875 206.183594 C 131.238281 210.488281 132.761719 214.191406 135.832031 217.261719 C 138.902344 220.332031 142.605469 221.851562 146.964844 221.851562 C 149.75 221.851562 152.332031 221.136719 154.65625 219.730469 C 157.011719 218.296875 158.902344 216.429688 160.367188 214.046875 C 161.832031 211.664062 162.578125 209.054688 162.605469 206.183594 C 162.546875 201.910156 160.96875 198.265625 157.84375 195.222656 C 154.742188 192.179688 151.097656 190.660156 146.964844 190.660156 Z M 146.964844 190.660156 " fill-opacity="1" fill-rule="nonzero"/></g></g></svg>